<svg version="1.1" id="Calque_1" xmlns="http://www.w3.org/2000/svg" x="0" y="0" viewBox="0 0 50 50" xml:space="preserve"><style>.st1{fill:#e6e6e6}.st2{fill:#333}.st3{fill:#dacb1f}</style><circle cx="25" cy="25" r="25" fill="#4d4d4d"/><path class="st1" d="M17.8 6.1v21.1l-.1 13.7 5.5 2.2V8.6l-5.4-2.5z"/><path class="st2" d="M14.4 23.5l-9 6v6l5.5 2.3 7-10.6-3.5-3.7z"/><path class="st3" d="M5.4 1L11 3.4 17.8 20v7.2l-3.5-3.7-8.9-16V1z"/><path class="st2" d="M25 9.4l5.5 2.3v25.4L25 39.8V9.4z"/><path class="st1" d="M25 39.8l3.3 5.5 5.5-2.7-3.3-5.4-5.5 2.6z"/><path class="st3" d="M39.8 44.8V50l-11.5-4.7 5.5-2.7 6 2.2z"/><path class="st1" d="M39.8 15.4l5.5 2.4v28.5L39.8 50V15.4z"/></svg>